<svg xmlns="http://www.w3.org/2000/svg" viewBox="0 0 500 500"><defs><style>.cls-1{isolation:isolate;}.cls-17,.cls-2{fill:#fff;}.cls-3{fill:#eaf0f4;}.cls-4,.cls-8{opacity:0.75;}.cls-11,.cls-12,.cls-15,.cls-4{mix-blend-mode:multiply;}.cls-12,.cls-13,.cls-5{fill:#27b1be;}.cls-6,.cls-7{fill:none;stroke-linecap:round;stroke-linejoin:round;stroke-width:2.04px;stroke-dasharray:6.12 6.12;}.cls-6{stroke:#fff;}.cls-7{stroke:#27b1be;}.cls-9{fill:#ff9d00;}.cls-10{fill:#f50;}.cls-11{opacity:0.65;}.cls-13,.cls-17{opacity:0.3;mix-blend-mode:overlay;}.cls-14,.cls-15{fill:#b8e5ea;}.cls-16{fill:#00a371;}</style></defs><g class="cls-1"><g id="BACKGROUND"><rect class="cls-2" width="500" height="500"/></g><g id="OBJECTS"><path class="cls-3" d="M102.59,218.23c-8.09,14.6-12,31.19-9.68,48.07,3.43,24.54,17.51,47.68,38.85,60.63,17.29,10.5,37.72,15.64,57.88,15.63,21.85,0,38.44-7.81,60.36-6.26,3,.22,10.94,2.91,13.94,3.26,37.06,4.34,38.85-26.73,58.35-27.29,22.47-.65,41.54-7.92,53.65-16.37,39.59-27.67,36.07-66,22.41-83.81a63.85,63.85,0,0,0-80-18.25c-16.51,8.27-34.94,10.15-52.48,4.08-9.15-3.17-17.7-7.81-26.29-12.25-23.69-12.22-48.65-21.51-75.51-15C138.87,176.87,115.48,195,102.59,218.23Z"/><g class="cls-4"><path class="cls-5" d="M342.65,294.9a5,5,0,0,0-1.46.22A8,8,0,0,0,328,293.86a5.68,5.68,0,0,0-8.12,5.14h27.75A5.11,5.11,0,0,0,342.65,294.9Z"/></g><path class="cls-2" d="M339.75,294.9a5.08,5.08,0,0,0-1.47.22,8,8,0,0,0-13.16-1.26,5.63,5.63,0,0,0-2.43-.55A5.69,5.69,0,0,0,317,299h27.76A5.11,5.11,0,0,0,339.75,294.9Z"/><g class="cls-4"><path class="cls-5" d="M393.4,228.45a7.64,7.64,0,0,0-2.31.34,12.56,12.56,0,0,0-20.64-2,8.93,8.93,0,0,0-12.75,8.06h43.56A8,8,0,0,0,393.4,228.45Z"/></g><path class="cls-2" d="M390.49,228.45a7.69,7.69,0,0,0-2.31.34,12.56,12.56,0,0,0-20.64-2,8.92,8.92,0,0,0-12.74,8.06h43.55A8,8,0,0,0,390.49,228.45Z"/><path class="cls-6" d="M266.35,309.49c-44,18.86-104.15,34.48-142.52-4.76-15.26-15.62-23.26-38.35-20-60,3.57-24.06,20.78-43.6,43.22-52.17,12.49-4.77,51.54-7.5,47.66,15.8-1.63,9.82-18,11.34-22.73,1.57"/><path class="cls-7" d="M267.8,310.94c-44,18.86-104.15,34.48-142.52-4.76-15.26-15.61-23.26-38.35-20-60,3.58-24.06,20.78-43.6,43.23-52.17,12.48-4.77,51.54-7.5,47.66,15.81-1.64,9.81-18,11.33-22.74,1.56"/><g class="cls-8"><path class="cls-2" d="M130.13,231.53h24.32v3.58h-10.4v36.54h-3.63V235.11H130.13Z"/><path class="cls-2" d="M170.91,245.18a4.12,4.12,0,0,0-2.81-.94c-4,0-6.27,4.74-6.27,11.56v15.85h-3.58v-30.1h3.58v4.68c1.49-3.64,3.91-5.4,7.32-5.4a6,6,0,0,1,1.76.28Z"/><path class="cls-2" d="M191.5,271.65h-3.58V269.4a9,9,0,0,1-7.43,3c-5.56,0-7.27-4.12-7.27-7.32,0-9.74,9.58-8.09,14.7-14.31V248c0-3.47-2.64-4.24-6.11-4.24a16.75,16.75,0,0,0-7.05,1.38v-3a34.7,34.7,0,0,1,7.43-1.38c5.73,0,9.31,2,9.31,6.39v24.43Zm-3.58-16.95c-4,4.35-11.17,4-11.17,10.07,0,3.53,1.81,4.63,4.62,4.63,4.07,0,6.6-2.26,6.55-5.4Z"/><path class="cls-2" d="M195.68,241.55h3.74l6.83,25.26,6.82-25.26h3.74l-8.14,30.1h-4.85Z"/><path class="cls-2" d="M240.21,257.18H223.86v7.37c0,2.1,2.42,4.9,6.77,4.9,2.64,0,5.45-1.87,6-4.07h3.52c-.83,5.5-6.55,7-9.85,7-9.19,0-10-6.1-10-7.81v-15.8c0-4.68,4.12-8,10.45-8,8.09,0,9.42,6,9.42,8.86Zm-3.58-3v-4.85c0-3.13-2.59-5.56-6.33-5.56s-6.44,3-6.44,5.23v5.18Z"/><path class="cls-2" d="M246.15,229.82h3.58v41.83h-3.58Z"/><path class="cls-2" d="M153,283.59h3.18V298h8.95v2.69H153Z"/><path class="cls-2" d="M168.59,292.16c0-5.07,3.91-8.81,9.22-8.81s9.22,3.72,9.22,8.81-3.91,8.8-9.22,8.8S168.59,297.22,168.59,292.16Zm15.24,0a6,6,0,1,0-6,6A5.84,5.84,0,0,0,183.83,292.16Z"/><path class="cls-2" d="M204.55,292h3v6.82a10.79,10.79,0,0,1-6.7,2.18c-5.31,0-9.22-3.69-9.22-8.8s3.91-8.81,9.27-8.81a8.82,8.82,0,0,1,6.87,2.79l-2,2a6.35,6.35,0,0,0-4.72-2,6,6,0,1,0,0,12,6.91,6.91,0,0,0,3.53-.88Z"/><path class="cls-2" d="M213,292.16c0-5.07,3.92-8.81,9.22-8.81s9.22,3.72,9.22,8.81-3.91,8.8-9.22,8.8S213,297.22,213,292.16Zm15.24,0a6,6,0,1,0-6,6A5.84,5.84,0,0,0,228.2,292.16Z"/></g><path class="cls-9" d="M131.58,233h24.33v3.58H145.5v36.55h-3.63V236.56H131.58Z"/><path class="cls-9" d="M172.36,246.63a4.11,4.11,0,0,0-2.8-.93c-4,0-6.28,4.73-6.28,11.56v15.85h-3.57V243h3.57v4.68c1.49-3.63,3.91-5.39,7.32-5.39a5.93,5.93,0,0,1,1.76.27Z"/><path class="cls-9" d="M193,273.11h-3.58v-2.26a9,9,0,0,1-7.43,3c-5.56,0-7.26-4.13-7.26-7.32,0-9.74,9.57-8.09,14.69-14.31V249.5c0-3.47-2.64-4.24-6.11-4.24a16.63,16.63,0,0,0-7,1.37v-3a35.21,35.21,0,0,1,7.43-1.37c5.72,0,9.3,2,9.3,6.38v24.44Zm-3.58-16.95c-4,4.34-11.17,4-11.17,10.07,0,3.52,1.81,4.62,4.62,4.62,4.07,0,6.61-2.26,6.55-5.39Z"/><path class="cls-9" d="M197.13,243h3.74l6.83,25.26L214.52,243h3.75l-8.15,30.11h-4.84Z"/><path class="cls-9" d="M241.66,258.63H225.31V266c0,2.09,2.42,4.9,6.77,4.9,2.64,0,5.45-1.88,6-4.08h3.52c-.82,5.51-6.55,7.05-9.85,7.05-9.19,0-10-6.11-10-7.82V250.27c0-4.68,4.13-8,10.46-8,8.09,0,9.41,6,9.41,8.86Zm-3.58-3v-4.84c0-3.14-2.59-5.56-6.33-5.56s-6.44,3-6.44,5.23v5.17Z"/><path class="cls-9" d="M247.6,231.28h3.58v41.83H247.6Z"/><path class="cls-10" d="M154.48,285.05h3.18v14.43h9v2.69H154.48Z"/><path class="cls-10" d="M170,293.61c0-5.06,3.91-8.81,9.22-8.81s9.22,3.72,9.22,8.81-3.91,8.8-9.22,8.8S170,298.67,170,293.61Zm15.24,0a6,6,0,1,0-6,6A5.84,5.84,0,0,0,185.28,293.61Z"/><path class="cls-10" d="M206,293.41h3v6.83a10.87,10.87,0,0,1-6.71,2.17c-5.3,0-9.22-3.69-9.22-8.8s3.92-8.81,9.27-8.81a8.87,8.87,0,0,1,6.88,2.79l-2,2a6.34,6.34,0,0,0-4.72-2,6,6,0,1,0,0,12,7,7,0,0,0,3.52-.88Z"/><path class="cls-10" d="M214.41,293.61c0-5.06,3.92-8.81,9.23-8.81s9.22,3.72,9.22,8.81-3.92,8.8-9.22,8.8S214.41,298.67,214.41,293.61Zm15.24,0a6,6,0,1,0-6,6A5.84,5.84,0,0,0,229.65,293.61Z"/><g class="cls-4"><path class="cls-5" d="M240.19,222a7.81,7.81,0,0,0-2.28.34,12.43,12.43,0,0,0-20.42-2,8.83,8.83,0,0,0-12.61,8H248A7.93,7.93,0,0,0,240.19,222Z"/></g><path class="cls-2" d="M237.29,222a7.76,7.76,0,0,0-2.28.34,12.44,12.44,0,0,0-20.43-2,8.83,8.83,0,0,0-12.61,8h43.09A7.93,7.93,0,0,0,237.29,222Z"/><g class="cls-11"><polygon class="cls-5" points="392 301.85 381.25 303.78 320.68 265.89 316.1 263.03 309.32 258.79 302.16 254.31 303.04 253.85 318.6 245.59 335.32 236.72 340.23 242.36 349.43 252.93 354.49 258.75 372.75 279.74 377.81 285.56 392 301.85"/><path class="cls-5" d="M350.21,264.86l-6.13-4.31,7.67-10.92a3.75,3.75,0,0,1,5.22-.91h0a3.75,3.75,0,0,1,.91,5.22Z"/><path class="cls-5" d="M374.75,289.93l-6.13-4.31,7.67-10.92a3.75,3.75,0,0,1,5.22-.91h0a3.75,3.75,0,0,1,.91,5.22Z"/><polygon class="cls-5" points="315.96 264.01 309.32 258.79 303.04 253.85 298.79 250.51 242.62 206.36 240.8 195.6 260.93 203.42 268.12 206.21 294.05 216.28 301.24 219.07 314.3 224.14 321.28 226.85 318.6 245.59 316.1 263.03 315.96 264.01"/><path class="cls-5" d="M289.76,222.38l6.13,4.31,7.67-10.92a3.74,3.74,0,0,0-.91-5.22h0a3.73,3.73,0,0,0-5.21.91Z"/><path class="cls-5" d="M257.85,207.79l6.13,4.3,7.68-10.92a3.75,3.75,0,0,0-.91-5.22h0a3.75,3.75,0,0,0-5.22.91Z"/><polygon class="cls-5" points="292.57 317.38 282.2 296.97 293.19 281.34 304.44 300.5 292.57 317.38"/><polygon class="cls-5" points="259.48 294.13 282.2 296.97 293.19 281.34 271.35 277.24 259.48 294.13"/><path class="cls-12" d="M320.68,265.89c6.92-8.12,13.79-16.43,19.55-23.53l-4.91-5.64-16.72,8.87,2.68-18.74-7-2.71c-4.73,7.83-10.21,17.1-15.51,26.37Z"/><path class="cls-5" d="M352.75,222c-4.57,6.49-69.11,87.15-75.61,82.58s47.52-92.62,52.08-99.11A14.38,14.38,0,1,1,352.75,222Z"/><path class="cls-5" d="M345.92,206.7a10.87,10.87,0,0,1,3.41,13.86,10.55,10.55,0,0,0,.95-1.15,10.87,10.87,0,1,0-17.79-12.5,11.05,11.05,0,0,0-.76,1.28A10.89,10.89,0,0,1,345.92,206.7Z"/><path class="cls-5" d="M334.08,239.54c1.22.56,2.54.32,2.95-.56s-.25-2-1.48-2.62-2.54-.31-2.95.56S332.86,239,334.08,239.54Z"/><path class="cls-5" d="M328.59,246.09c1.22.57,2.55.32,3-.56s-.25-2-1.47-2.61-2.55-.32-2.95.56S327.37,245.52,328.59,246.09Z"/><path class="cls-5" d="M323.11,252.64c1.22.57,2.54.32,2.95-.55s-.26-2.05-1.48-2.62-2.54-.32-2.95.56S321.88,252.08,323.11,252.64Z"/><path class="cls-5" d="M317.62,259.2c1.22.57,2.54.32,2.95-.56s-.25-2.05-1.48-2.61-2.54-.32-2.95.55S316.4,258.63,317.62,259.2Z"/><path class="cls-5" d="M312.91,264.86c1.22.57,2.54.32,2.95-.55s-.25-2.05-1.48-2.62-2.54-.32-2.95.56S311.69,264.29,312.91,264.86Z"/><path class="cls-5" d="M307.42,271.42c1.23.56,2.55.32,2.95-.56s-.25-2.05-1.47-2.62-2.54-.31-2.95.56S306.2,270.85,307.42,271.42Z"/><path class="cls-5" d="M301.94,278c1.22.57,2.54.32,2.95-.56s-.26-2-1.48-2.61-2.54-.32-3,.56S300.72,277.4,301.94,278Z"/><path class="cls-13" d="M349.25,202c-.06-.05-.13-.08-18.77,25.9,0,0-53.4,76.67-53.34,76.71,6.5,4.57,71-76.09,75.61-82.58A14.38,14.38,0,0,0,349.25,202Z"/></g><polygon class="cls-14" points="389.09 301.85 378.35 303.78 317.77 265.89 313.19 263.03 306.42 258.79 299.26 254.31 300.13 253.85 315.69 245.59 332.41 236.72 337.32 242.36 346.52 252.93 351.59 258.75 369.84 279.74 374.91 285.56 389.09 301.85"/><path class="cls-14" d="M347.3,264.86l-6.13-4.31,7.68-10.92a3.74,3.74,0,0,1,5.21-.91h0a3.75,3.75,0,0,1,.92,5.22Z"/><path class="cls-14" d="M371.84,289.93l-6.13-4.31,7.68-10.92a3.74,3.74,0,0,1,5.21-.91h0a3.74,3.74,0,0,1,.92,5.22Z"/><polygon class="cls-14" points="313.05 264.01 306.42 258.79 300.13 253.85 295.88 250.51 239.71 206.36 237.89 195.6 258.02 203.42 265.21 206.21 291.14 216.28 298.33 219.07 311.4 224.14 318.38 226.85 315.69 245.59 313.19 263.03 313.05 264.01"/><path class="cls-14" d="M286.85,222.38l6.13,4.31,7.68-10.92a3.75,3.75,0,0,0-.91-5.22h0a3.74,3.74,0,0,0-5.22.91Z"/><path class="cls-14" d="M255,207.79l6.13,4.3,7.67-10.92a3.74,3.74,0,0,0-.91-5.22h0a3.75,3.75,0,0,0-5.22.91Z"/><polygon class="cls-14" points="289.67 317.38 279.3 296.97 290.28 281.34 301.54 300.5 289.67 317.38"/><polygon class="cls-14" points="256.58 294.13 279.3 296.97 290.28 281.34 268.44 277.24 256.58 294.13"/><path class="cls-15" d="M317.77,265.89c6.93-8.12,13.79-16.43,19.55-23.53l-4.91-5.64-16.72,8.87,2.69-18.74-7-2.71c-4.73,7.83-10.22,17.1-15.51,26.37Z"/><path class="cls-14" d="M349.84,222c-4.56,6.49-69.11,87.15-75.61,82.58s47.52-92.62,52.09-99.11A14.37,14.37,0,1,1,349.84,222Z"/><path class="cls-16" d="M343,206.7a10.89,10.89,0,0,1,3.41,13.86,13.5,13.5,0,0,0,.95-1.15,10.87,10.87,0,1,0-17.79-12.5,9.8,9.8,0,0,0-.76,1.28A10.89,10.89,0,0,1,343,206.7Z"/><path class="cls-16" d="M331.17,239.54c1.22.56,2.55.32,2.95-.56s-.25-2-1.47-2.62-2.55-.31-2.95.56S330,239,331.17,239.54Z"/><path class="cls-16" d="M325.69,246.09c1.22.57,2.54.32,2.95-.56s-.26-2-1.48-2.61-2.54-.32-3,.56S324.46,245.52,325.69,246.09Z"/><path class="cls-16" d="M320.2,252.64c1.22.57,2.54.32,2.95-.55s-.25-2.05-1.48-2.62-2.54-.32-2.95.56S319,252.08,320.2,252.64Z"/><path class="cls-16" d="M314.71,259.2c1.23.57,2.55.32,3-.56s-.25-2.05-1.47-2.61-2.54-.32-2.95.55S313.49,258.63,314.71,259.2Z"/><ellipse class="cls-16" cx="310.74" cy="263.28" rx="1.75" ry="2.44" transform="translate(-58.99 434.08) rotate(-65.07)"/><path class="cls-16" d="M304.52,271.42c1.22.56,2.54.32,3-.56s-.26-2.05-1.48-2.62-2.54-.31-2.95.56S303.3,270.85,304.52,271.42Z"/><path class="cls-16" d="M299,278c1.22.57,2.54.32,3-.56s-.25-2-1.47-2.61-2.55-.32-2.95.56S297.81,277.4,299,278Z"/><path class="cls-17" d="M346.35,202c-.07-.05-.14-.08-18.78,25.9,0,0-53.4,76.67-53.34,76.71,6.5,4.57,71-76.09,75.61-82.58A14.38,14.38,0,0,0,346.35,202Z"/><path class="cls-2" d="M166.78,156a13.41,13.41,0,0,0-13.42,13.41c0,7.41,13.42,29.38,13.42,29.38s13.41-22,13.41-29.38A13.41,13.41,0,0,0,166.78,156Zm0,21.21a7.8,7.8,0,1,1,7.79-7.8A7.8,7.8,0,0,1,166.78,177.2Z"/><path class="cls-16" d="M168.23,157.44a13.42,13.42,0,0,0-13.42,13.42c0,7.41,13.42,29.37,13.42,29.37s13.42-22,13.42-29.37A13.42,13.42,0,0,0,168.23,157.44Zm0,21.21a7.8,7.8,0,1,1,7.79-7.79A7.8,7.8,0,0,1,168.23,178.65Z"/><path class="cls-2" d="M169.94,206.59a3.17,3.17,0,1,1-3.16-3.17A3.16,3.16,0,0,1,169.94,206.59Z"/><path class="cls-16" d="M171.39,208a3.17,3.17,0,1,1-3.16-3.16A3.16,3.16,0,0,1,171.39,208Z"/><path class="cls-3" d="M318.31,320.34a23.91,23.91,0,0,1,12.32-2.17c.92.08,5.32.51,5.37,1.62.07,1.42-7,.33-14.31,6.25-4.21,3.42-5.84,7-9.75,7.06-2,0-4.69-.91-5-2.71C306.48,327.16,314,322.37,318.31,320.34Z"/></g></g></svg>