<?xml version="1.0" encoding="utf-8"?>
<!-- Generator: Adobe Illustrator 24.3.0, SVG Export Plug-In . SVG Version: 6.00 Build 0)  -->
<svg version="1.1" id="Capa_1" xmlns="http://www.w3.org/2000/svg" xmlns:xlink="http://www.w3.org/1999/xlink" x="0px" y="0px"
	 viewBox="0 0 328 54" style="enable-background:new 0 0 328 54;" xml:space="preserve">
<style type="text/css">
	.st0{fill:#E7EFF4;}
	.st1{opacity:0.75;}
	.st2{fill:#00B2BF;}
	.st3{fill:#FFFFFF;}
	
		.st4{fill:none;stroke:#FFFFFF;stroke-width:2.0385;stroke-linecap:round;stroke-linejoin:round;stroke-miterlimit:10;stroke-dasharray:6.1156,6.1156;}
	
		.st5{fill:none;stroke:#00B2BF;stroke-width:2.0385;stroke-linecap:round;stroke-linejoin:round;stroke-miterlimit:10;stroke-dasharray:6.1156,6.1156;}
	.st6{font-family:'NautilusPompilius';}
	.st7{font-size:14.5675px;}
	.st8{font-family:'Montserrat-SemiBold';}
	.st9{font-size:6.4745px;}
	.st10{fill:#FF9D00;}
	.st11{fill:#FF5400;}
	.st12{opacity:0.65;}
	.st13{opacity:0.3;fill:#00B2BF;}
	.st14{fill:#A2E5EA;}
	.st15{fill:#00A46F;}
	.st16{opacity:0.3;fill:#FFFFFF;}
	.st17{fill:none;}
	.st18{font-family:'MyriadPro-Regular';}
	.st19{font-size:20px;}
</style>
<g>
	<path class="st0" d="M20.6,18.1c-2.1,3.9-3.2,8.3-2.6,12.7c0.9,6.5,4.6,12.6,10.3,16c4.6,2.8,10,4.1,15.3,4.1
		c5.8,0,10.2-2.1,16-1.7c0.8,0.1,2.9,0.8,3.7,0.9c9.8,1.1,10.3-7.1,15.4-7.2c5.9-0.2,11-2.1,14.2-4.3c10.5-7.3,9.5-17.5,5.9-22.2
		c-4.8-6.3-13.4-8.7-21.2-4.8c-4.4,2.2-9.2,2.7-13.9,1.1c-2.4-0.8-4.7-2.1-7-3.2c-6.3-3.2-12.9-5.7-20-4C30.2,7.1,24,11.9,20.6,18.1
		z"/>
	<g>
		<g>
			<g>
				<g class="st1">
					<path class="st2" d="M86.3,38.4c-0.1,0-0.3,0-0.4,0.1c-0.4-0.7-1.1-1.1-1.9-1.1c-0.7,0-1.2,0.3-1.6,0.8C82.2,38,82,38,81.8,38
						c-0.8,0-1.5,0.7-1.5,1.5h1.7h1.4H85h1.2h1.5C87.5,38.8,86.9,38.4,86.3,38.4z"/>
				</g>
				<g>
					<path class="st3" d="M83.4,38.4c-0.1,0-0.3,0-0.4,0.1c-0.4-0.7-1.1-1.1-1.9-1.1c-0.7,0-1.2,0.3-1.6,0.8
						C79.3,38,79.1,38,78.9,38c-0.8,0-1.5,0.7-1.5,1.5H79h1.4h1.7h1.2h1.5C84.6,38.8,84,38.4,83.4,38.4z"/>
				</g>
			</g>
			<g>
				<g class="st1">
					<path class="st2" d="M99.7,20.8c-0.2,0-0.4,0-0.6,0.1c-0.6-1-1.7-1.7-2.9-1.7c-1,0-1.9,0.5-2.6,1.2c-0.3-0.1-0.7-0.2-1-0.2
						c-1.3,0-2.4,1.1-2.4,2.4h2.6H95h2.6h1.9h2.3C101.6,21.5,100.8,20.8,99.7,20.8z"/>
				</g>
				<g>
					<path class="st3" d="M96.8,20.8c-0.2,0-0.4,0-0.6,0.1c-0.6-1-1.7-1.7-2.9-1.7c-1,0-1.9,0.5-2.6,1.2c-0.3-0.1-0.7-0.2-1-0.2
						c-1.3,0-2.4,1.1-2.4,2.4H90h2.1h2.6h1.9h2.3C98.7,21.5,97.8,20.8,96.8,20.8z"/>
				</g>
			</g>
			<g>
				<g>
					<path class="st4" d="M62.9,41.2c-11.6,5-27.6,9.1-37.7-1.3c-4-4.1-6.2-10.1-5.3-15.9c0.9-6.4,5.5-11.5,11.4-13.8
						c3.3-1.3,13.6-2,12.6,4.2c-0.4,2.6-4.8,3-6,0.4"/>
				</g>
				<g>
					<path class="st5" d="M64.3,42.6c-11.6,5-27.6,9.1-37.7-1.3c-4-4.1-6.2-10.1-5.3-15.9c0.9-6.4,5.5-11.5,11.4-13.8
						c3.3-1.3,13.6-2,12.6,4.2c-0.4,2.6-4.8,3-6,0.4"/>
				</g>
			</g>
			<g>
				<g class="st1">
					<text transform="matrix(1 0 0 1 26.6914 31.1524)"><tspan x="0" y="0" class="st3 st6 st7">Travel </tspan><tspan x="5.6" y="7.7" class="st3 st8 st9">logo</tspan></text>
				</g>
				<g>
					<text transform="matrix(1 0 0 1 28.1445 32.6055)"><tspan x="0" y="0" class="st10 st6 st7">Travel </tspan><tspan x="5.6" y="7.7" class="st11 st8 st9">logo</tspan></text>
				</g>
			</g>
			<g>
				<g class="st1">
					<path class="st2" d="M59.2,19.1c-0.2,0-0.4,0-0.6,0.1c-0.6-1-1.6-1.7-2.9-1.7c-1,0-1.9,0.5-2.5,1.2c-0.3-0.1-0.6-0.2-1-0.2
						c-1.3,0-2.3,1-2.3,2.3h2.6h2.1h2.6H59h2.3C61,19.8,60.2,19.1,59.2,19.1z"/>
				</g>
				<g>
					<path class="st3" d="M56.3,19.1c-0.2,0-0.4,0-0.6,0.1c-0.6-1-1.6-1.7-2.9-1.7c-1,0-1.9,0.5-2.5,1.2c-0.3-0.1-0.6-0.2-1-0.2
						c-1.3,0-2.3,1-2.3,2.3h2.6h2.1h2.6h1.9h2.3C58.1,19.8,57.3,19.1,56.3,19.1z"/>
				</g>
			</g>
			<g>
				<g class="st12">
					<polygon class="st2" points="99.4,40.2 96.5,40.7 80.5,30.7 79.3,29.9 77.5,28.8 75.6,27.6 75.8,27.5 79.9,25.3 84.4,23 
						85.7,24.5 88.1,27.3 89.4,28.8 94.3,34.4 95.6,35.9 					"/>
					<path class="st2" d="M88.3,30.4l-1.6-1.1l2-2.9c0.3-0.4,0.9-0.6,1.4-0.2l0,0c0.4,0.3,0.6,0.9,0.2,1.4L88.3,30.4z"/>
					<path class="st2" d="M94.8,37.1l-1.6-1.1l2-2.9c0.3-0.4,0.9-0.6,1.4-0.2l0,0c0.4,0.3,0.6,0.9,0.2,1.4L94.8,37.1z"/>
					<polygon class="st2" points="79.2,30.2 77.5,28.8 75.8,27.5 74.7,26.6 59.8,14.9 59.3,12.1 64.7,14.2 66.6,14.9 73.4,17.6 
						75.3,18.3 78.8,19.6 80.6,20.4 79.9,25.3 79.3,29.9 					"/>
					<path class="st2" d="M72.3,19.2l1.6,1.1l2-2.9c0.3-0.4,0.2-1.1-0.2-1.4l0,0c-0.4-0.3-1.1-0.2-1.4,0.2L72.3,19.2z"/>
					<path class="st2" d="M63.8,15.3l1.6,1.1l2-2.9c0.3-0.4,0.2-1.1-0.2-1.4l0,0c-0.4-0.3-1.1-0.2-1.4,0.2L63.8,15.3z"/>
					<polygon class="st2" points="73,44.3 70.3,38.9 73.2,34.8 76.2,39.9 					"/>
					<polygon class="st2" points="64.3,38.2 70.3,38.9 73.2,34.8 67.4,33.7 					"/>
					<path class="st2" d="M80.5,30.7c1.8-2.2,3.6-4.3,5.2-6.2L84.4,23l-4.4,2.3l0.7-5l-1.8-0.7c-1.3,2.1-2.7,4.5-4.1,7L80.5,30.7z"
						/>
					<path class="st2" d="M89,19.1c-1.2,1.7-18.3,23.1-20,21.9c-1.7-1.2,12.6-24.5,13.8-26.2c1.2-1.7,3.6-2.1,5.3-0.9
						C89.8,15,90.2,17.4,89,19.1z"/>
					<path class="st2" d="M87.2,15c1.2,0.8,1.5,2.4,0.9,3.7c0.1-0.1,0.2-0.2,0.3-0.3c0.9-1.3,0.6-3.1-0.7-4c-1.3-0.9-3.1-0.6-4,0.7
						c-0.1,0.1-0.1,0.2-0.2,0.3C84.4,14.4,86,14.2,87.2,15z"/>
					<path class="st2" d="M84,23.7c0.3,0.2,0.7,0.1,0.8-0.1s-0.1-0.5-0.4-0.7c-0.3-0.2-0.7-0.1-0.8,0.1C83.5,23.3,83.7,23.6,84,23.7
						z"/>
					<path class="st2" d="M82.6,25.5c0.3,0.2,0.7,0.1,0.8-0.1s-0.1-0.5-0.4-0.7s-0.7-0.1-0.8,0.1C82.1,25,82.2,25.3,82.6,25.5z"/>
					<path class="st2" d="M81.1,27.2c0.3,0.2,0.7,0.1,0.8-0.1c0.1-0.2-0.1-0.5-0.4-0.7c-0.3-0.2-0.7-0.1-0.8,0.1
						C80.6,26.7,80.8,27,81.1,27.2z"/>
					<path class="st2" d="M79.7,28.9c0.3,0.2,0.7,0.1,0.8-0.1c0.1-0.2-0.1-0.5-0.4-0.7c-0.3-0.2-0.7-0.1-0.8,0.1
						C79.2,28.5,79.3,28.8,79.7,28.9z"/>
					<ellipse transform="matrix(0.4215 -0.9068 0.9068 0.4215 18.2689 88.6456)" class="st2" cx="78.6" cy="30" rx="0.5" ry="0.6"/>
					<path class="st2" d="M77,32.2c0.3,0.2,0.7,0.1,0.8-0.1c0.1-0.2-0.1-0.5-0.4-0.7c-0.3-0.2-0.7-0.1-0.8,0.1
						C76.5,31.7,76.6,32,77,32.2z"/>
					<path class="st2" d="M75.5,33.9c0.3,0.2,0.7,0.1,0.8-0.1c0.1-0.2-0.1-0.5-0.4-0.7s-0.7-0.1-0.8,0.1
						C75,33.4,75.2,33.7,75.5,33.9z"/>
					<path class="st13" d="M88,13.8c0,0,0,0-5,6.9c0,0-14.1,20.3-14.1,20.3c1.7,1.2,18.8-20.1,20-21.9C90.2,17.4,89.8,15,88,13.8z"
						/>
				</g>
				<g>
					<g>
						<g>
							<polygon class="st14" points="96.4,40.2 93.6,40.7 77.6,30.7 76.4,29.9 74.6,28.8 72.7,27.6 72.9,27.5 77,25.3 81.4,23 
								82.7,24.5 85.2,27.3 86.5,28.8 91.4,34.4 92.7,35.9 							"/>
							<path class="st14" d="M85.4,30.4l-1.6-1.1l2-2.9c0.3-0.4,0.9-0.6,1.4-0.2l0,0c0.4,0.3,0.6,0.9,0.2,1.4L85.4,30.4z"/>
							<path class="st14" d="M91.9,37.1l-1.6-1.1l2-2.9c0.3-0.4,0.9-0.6,1.4-0.2l0,0c0.4,0.3,0.6,0.9,0.2,1.4L91.9,37.1z"/>
						</g>
						<g>
							<polygon class="st14" points="76.3,30.2 74.6,28.8 72.9,27.5 71.8,26.6 56.9,14.9 56.4,12.1 61.8,14.2 63.7,14.9 70.5,17.6 
								72.4,18.3 75.9,19.6 77.7,20.4 77,25.3 76.4,29.9 							"/>
							<path class="st14" d="M69.4,19.2l1.6,1.1l2-2.9c0.3-0.4,0.2-1.1-0.2-1.4l0,0c-0.4-0.3-1.1-0.2-1.4,0.2L69.4,19.2z"/>
							<path class="st14" d="M60.9,15.3l1.6,1.1l2-2.9c0.3-0.4,0.2-1.1-0.2-1.4l0,0c-0.4-0.3-1.1-0.2-1.4,0.2L60.9,15.3z"/>
						</g>
						<g>
							<polygon class="st14" points="70.1,44.3 67.4,38.9 70.3,34.8 73.3,39.9 							"/>
							<polygon class="st14" points="61.4,38.2 67.4,38.9 70.3,34.8 64.5,33.7 							"/>
						</g>
						<path class="st14" d="M77.6,30.7c1.8-2.2,3.6-4.3,5.2-6.2L81.4,23L77,25.3l0.7-5l-1.8-0.7c-1.3,2.1-2.7,4.5-4.1,7L77.6,30.7z"
							/>
						<path class="st14" d="M86.1,19.1c-1.2,1.7-18.3,23.1-20,21.9c-1.7-1.2,12.6-24.5,13.8-26.2c1.2-1.7,3.6-2.1,5.3-0.9
							C86.9,15,87.3,17.4,86.1,19.1z"/>
						<g>
							<path class="st15" d="M84.3,15c1.2,0.8,1.5,2.4,0.9,3.7c0.1-0.1,0.2-0.2,0.3-0.3c0.9-1.3,0.6-3.1-0.7-4
								c-1.3-0.9-3.1-0.6-4,0.7c-0.1,0.1-0.1,0.2-0.2,0.3C81.5,14.4,83.1,14.2,84.3,15z"/>
						</g>
						<g>
							<path class="st15" d="M81.1,23.7c0.3,0.2,0.7,0.1,0.8-0.1c0.1-0.2-0.1-0.5-0.4-0.7c-0.3-0.2-0.7-0.1-0.8,0.1
								C80.6,23.3,80.8,23.6,81.1,23.7z"/>
						</g>
						<g>
							<path class="st15" d="M79.7,25.5c0.3,0.2,0.7,0.1,0.8-0.1c0.1-0.2-0.1-0.5-0.4-0.7s-0.7-0.1-0.8,0.1
								C79.2,25,79.3,25.3,79.7,25.5z"/>
						</g>
						<g>
							<path class="st15" d="M78.2,27.2c0.3,0.2,0.7,0.1,0.8-0.1c0.1-0.2-0.1-0.5-0.4-0.7c-0.3-0.2-0.7-0.1-0.8,0.1
								C77.7,26.7,77.9,27,78.2,27.2z"/>
						</g>
						<g>
							<path class="st15" d="M76.8,28.9c0.3,0.2,0.7,0.1,0.8-0.1c0.1-0.2-0.1-0.5-0.4-0.7c-0.3-0.2-0.7-0.1-0.8,0.1
								C76.3,28.5,76.4,28.8,76.8,28.9z"/>
						</g>
						<g>
							
								<ellipse transform="matrix(0.4215 -0.9068 0.9068 0.4215 16.5878 86.0103)" class="st15" cx="75.7" cy="30" rx="0.5" ry="0.6"/>
						</g>
						<g>
							<path class="st15" d="M74.1,32.2c0.3,0.2,0.7,0.1,0.8-0.1c0.1-0.2-0.1-0.5-0.4-0.7c-0.3-0.2-0.7-0.1-0.8,0.1
								C73.6,31.7,73.7,32,74.1,32.2z"/>
						</g>
						<g>
							<path class="st15" d="M72.6,33.9c0.3,0.2,0.7,0.1,0.8-0.1c0.1-0.2-0.1-0.5-0.4-0.7c-0.3-0.2-0.7-0.1-0.8,0.1
								C72.1,33.4,72.3,33.7,72.6,33.9z"/>
						</g>
						<path class="st16" d="M85.1,13.8c0,0,0,0-5,6.9c0,0-14.1,20.3-14.1,20.3c1.7,1.2,18.8-20.1,20-21.9
							C87.3,17.4,86.9,15,85.1,13.8z"/>
					</g>
				</g>
			</g>
		</g>
		<g>
			<g>
				<path class="st3" d="M36.5,0.5c-2,0-3.6,1.6-3.6,3.6c0,2,3.6,7.8,3.6,7.8s3.6-5.8,3.6-7.8C40.1,2.1,38.5,0.5,36.5,0.5z
					 M36.5,6.2c-1.1,0-2.1-0.9-2.1-2.1C34.5,3,35.4,2,36.5,2c1.1,0,2.1,0.9,2.1,2.1C38.6,5.2,37.7,6.2,36.5,6.2z"/>
			</g>
			<g>
				<g>
					<path class="st15" d="M38,2c-2,0-3.6,1.6-3.6,3.6c0,2,3.6,7.8,3.6,7.8s3.6-5.8,3.6-7.8C41.5,3.6,40,2,38,2z M38,7.6
						c-1.1,0-2.1-0.9-2.1-2.1c0-1.1,0.9-2.1,2.1-2.1c1.1,0,2.1,0.9,2.1,2.1C40.1,6.7,39.1,7.6,38,7.6z"/>
				</g>
			</g>
		</g>
		<g>
			<g>
				<path class="st3" d="M37.4,13.9c0,0.5-0.4,0.8-0.8,0.8c-0.5,0-0.8-0.4-0.8-0.8c0-0.5,0.4-0.8,0.8-0.8
					C37,13.1,37.4,13.5,37.4,13.9z"/>
			</g>
			<g>
				<path class="st15" d="M38.8,15.4c0,0.5-0.4,0.8-0.8,0.8c-0.5,0-0.8-0.4-0.8-0.8s0.4-0.8,0.8-0.8C38.5,14.5,38.8,14.9,38.8,15.4z
					"/>
			</g>
		</g>
	</g>
	<path class="st0" d="M77.7,45.1c0.4-0.2,1.7-0.7,3.3-0.6c0.2,0,1.4,0.1,1.4,0.4c0,0.4-1.9,0.1-3.8,1.7c-1.1,0.9-1.5,1.9-2.6,1.9
		c-0.5,0-1.2-0.2-1.3-0.7C74.6,46.9,76.6,45.6,77.7,45.1z"/>
</g>
<text transform="matrix(1 0 0 1 120.9864 32.9723)" class="st17 st18 st19">AGENCIA DE VIAJES</text>
</svg>
